<svg width="113" height="82" viewBox="0 0 113 82" fill="none" xmlns="http://www.w3.org/2000/svg">
<g clip-path="url(#clip0)">
<path d="M55.352 70.8947C55.1024 70.6701 54.7674 70.5405 54.4051 70.5602L50.3713 70.7732C49.6479 70.8115 49.0918 71.4297 49.1301 72.1532C49.1684 72.8777 49.7861 73.4333 50.5101 73.3944L54.5438 73.1815C55.2678 73.1427 55.8234 72.525 55.7851 71.8015C55.7665 71.4392 55.6022 71.1197 55.352 70.8947Z" fill="#FFE34E"/>
<path d="M59.7825 70.2757C59.0584 70.3135 58.5029 70.9311 58.5412 71.6557C58.5795 72.3791 59.1972 72.9347 59.9212 72.8969L63.9549 72.6829C64.679 72.6452 65.2346 72.0275 65.1962 71.303C65.1771 70.9412 65.0133 70.6212 64.7637 70.3966C64.514 70.1721 64.1779 70.0425 63.8162 70.0617L59.7825 70.2757Z" fill="#FFE34E"/>
<path d="M58.6161 74.3479C58.5974 73.9856 58.4326 73.6656 58.183 73.441C57.9334 73.2165 57.5983 73.0869 57.2361 73.1066C56.5121 73.1444 55.9565 73.7621 55.9948 74.4866L56.2082 78.5198C56.2466 79.2444 56.8643 79.7999 57.5882 79.7611C58.3123 79.7233 58.8684 79.1051 58.8295 78.3811L58.6161 74.3479Z" fill="#FFE34E"/>
<path d="M58.118 64.9363C58.0989 64.5746 57.9351 64.2545 57.6855 64.03C57.4359 63.8054 57.1003 63.6764 56.738 63.695C56.014 63.7339 55.4585 64.3515 55.4967 65.075L55.7102 69.1093C55.7485 69.8328 56.3662 70.3884 57.0902 70.3506C57.8142 70.3117 58.3698 69.6941 58.3315 68.9706L58.118 64.9363Z" fill="#FFE34E"/>
<path d="M18.7492 24.5177C17.0888 23.0243 14.5238 23.16 13.0308 24.8198C11.5374 26.4802 11.6731 29.0452 13.3335 30.5387C14.9938 32.0321 17.5594 31.8969 19.0529 30.2365C20.5458 28.5767 20.4095 26.0112 18.7492 24.5177ZM15.0891 28.5868C14.505 28.0613 14.4572 27.1596 14.9827 26.5755C15.5076 25.9919 16.4093 25.9442 16.9935 26.4696C17.5777 26.995 17.6254 27.8967 17.1005 28.4803C16.575 29.0645 15.6733 29.1122 15.0891 28.5868Z" fill="#FFE34E"/>
<path d="M19.1201 39.1262C19.7737 38.3996 20.8928 38.3404 21.6194 38.9939C22.346 39.6475 22.4052 40.7666 21.7517 41.4932C21.0981 42.2198 19.9795 42.2785 19.2529 41.6249C18.5263 40.9714 18.4666 39.8528 19.1201 39.1262Z" fill="#FFE34E"/>
<path d="M39.9278 46.6247C39.9087 46.263 39.7449 45.9429 39.4953 45.7184C39.2456 45.4938 38.9095 45.3643 38.5478 45.3834L37.1263 45.4586L37.0505 44.0366C37.0314 43.6749 36.8676 43.3549 36.618 43.1303C36.3684 42.9058 36.0323 42.7762 35.6705 42.7954C34.9471 42.8337 34.391 43.4519 34.4292 44.1754L34.5045 45.5969L33.0835 45.6715C32.3595 45.7104 31.8039 46.328 31.8422 47.0515C31.8805 47.7761 32.4982 48.3317 33.2222 48.2928L34.6443 48.2181L34.7195 49.6396C34.7578 50.3641 35.3755 50.9197 36.0995 50.8809C36.8235 50.8431 37.3791 50.2254 37.3408 49.5009L37.265 48.0799L38.6865 48.0047C39.4106 47.9669 39.9666 47.3487 39.9278 46.6247Z" fill="#FFE34E"/>
<path d="M44.9616 -15.3398L44.781 -10.5628C44.7255 -9.08709 44.2977 -7.63418 43.5448 -6.36141C42.5081 -4.61459 40.8892 -3.26301 38.9874 -2.556L33.2092 -0.409333C30.0904 0.750887 27.8844 3.6404 27.5879 6.95435C27.2979 10.1983 28.824 13.3057 31.5687 15.0471L33.8542 16.5027C35.492 17.5404 36.4196 19.3881 36.2904 21.3188L36.0078 25.5585C35.8754 27.558 36.3285 29.5366 37.3186 31.281C38.4502 33.2758 40.2483 34.8487 42.3761 35.7089L43.7735 36.2727C44.6018 36.6075 45.1086 37.4605 45.0098 38.3476C44.7718 40.4521 45.4748 42.5404 46.9357 44.0736L48.5846 45.8033C50.0979 47.3918 52.2268 48.1913 54.4148 47.9862L59.0931 47.5508C59.5653 47.5067 60.02 47.6571 60.3741 47.9756C60.7276 48.2936 60.9257 48.7304 60.9318 49.2066L60.9937 54.0159C61.0221 56.1803 62.2374 58.1282 64.1711 59.0986C66.911 60.477 70.2529 59.472 71.7778 56.8084L77.5426 46.7308C79.6959 42.9654 82.9331 39.9921 86.9056 38.1288C90.6549 36.3698 93.8113 34.6927 96.2845 33.1427C98.7355 31.6061 100.696 29.4754 101.95 26.9798C104.139 22.6274 103.066 18.4142 90.7444 3.57537C88.398 0.747534 85.8008 -1.94629 82.9698 -4.49265C78.6707 -8.35965 73.8298 -11.8895 68.4907 -15.0451C67.8658 -15.4141 67.0615 -15.2062 66.6923 -14.5834C66.3238 -13.9581 66.53 -13.1483 67.1545 -12.7846C75.7469 -7.706 83.0055 -1.63773 88.7252 5.25185C100.989 20.0214 100.971 23.0839 99.6037 25.7998C98.5647 27.8659 96.935 29.6361 94.8881 30.9178C92.5055 32.4108 89.4454 34.0381 85.7911 35.7522C81.327 37.8453 77.6872 41.191 75.2641 45.426L69.4992 55.5035C68.6676 56.956 66.8452 57.5051 65.3506 56.7517C64.2971 56.2235 63.6356 55.1607 63.6194 53.9802L63.5574 49.1709C63.5424 47.9723 63.021 46.8244 62.1303 46.0231L62.1291 46.0221C61.2378 45.2204 60.0424 44.8241 58.85 44.9367L54.1716 45.372C52.7886 45.501 51.4377 44.9891 50.4865 43.9921L48.8359 42.2609C47.9124 41.2928 47.4686 39.9722 47.6183 38.6409C47.849 36.5862 46.672 34.6092 44.7558 33.8383L43.3579 33.274C41.779 32.6358 40.4416 31.4673 39.601 29.9847C38.8648 28.6881 38.5296 27.2176 38.6275 25.7316L38.91 21.4918C39.1024 18.6036 37.7082 15.8482 35.2646 14.2877L32.9791 12.8321C31.0577 11.611 30.0018 9.44885 30.2023 7.18726C30.4087 4.87537 31.9482 2.8594 34.1244 2.05064L39.9016 -0.0959734C42.3642 -1.01084 44.4604 -2.76053 45.8023 -5.02295C46.7793 -6.67194 47.3329 -8.55329 47.4057 -10.465L47.5858 -15.2425C47.6262 -16.3095 48.0416 -17.3341 48.7564 -18.1288C50.0274 -19.5417 52.0612 -20.0259 53.8179 -19.336C54.7914 -18.9513 55.9263 -18.4821 57.1888 -17.9224C57.8527 -17.6293 58.6284 -17.9278 58.922 -18.5902C59.2156 -19.2546 58.9132 -20.0338 58.2543 -20.3234C56.953 -20.9008 55.7845 -21.382 54.7796 -21.7777C52.0082 -22.8682 48.8033 -22.1077 46.804 -19.8849C45.6793 -18.6335 45.0249 -17.0186 44.9616 -15.3398Z" fill="#FFE34E"/>
<path d="M46.3206 22.6531C45.871 23.153 45.9117 23.9221 46.4116 24.3717C46.9114 24.8214 47.6806 24.7807 48.1302 24.2808C48.5798 23.7809 48.5391 23.0118 48.0392 22.5622C47.5394 22.1126 46.7702 22.1533 46.3206 22.6531Z" fill="#FFE34E"/>
<path d="M56.4097 34.1842C55.9606 34.6835 56.0014 35.4537 56.5007 35.9028C57.0005 36.3524 57.7702 36.3112 58.2193 35.8119C58.6689 35.312 58.6282 34.5429 58.1283 34.0932C57.6295 33.6436 56.8593 33.6843 56.4097 34.1842Z" fill="#FFE34E"/>
<path d="M65.8463 37.4146C66.4576 37.0248 66.6375 36.2137 66.2482 35.6008C66.0179 35.2402 60.9751 27.4116 50.9476 18.3921C49.9184 17.4663 48.8357 16.5268 47.7007 15.5837C47.1427 15.1191 46.3159 15.1948 45.8528 15.7523C45.3871 16.3093 45.4679 17.172 46.0214 17.6002C57.8739 27.4672 63.9739 36.9195 64.0336 37.0127C64.4317 37.6304 65.2361 37.8032 65.8463 37.4146Z" fill="#FFE34E"/>
</g>
<defs>
<clipPath id="clip0">
<rect width="80" height="80" fill="white" transform="translate(59.4789 81.979) rotate(-138.029)"/>
</clipPath>
</defs>
</svg>
