<svg width="184" height="58" viewBox="0 0 184 58" fill="none" xmlns="http://www.w3.org/2000/svg">
<path d="M29 0C13.0097 0 0 13.0097 0 29C0 44.9903 13.0097 58 29 58C44.9903 58 58 44.9903 58 29C58 13.0097 44.9903 0 29 0Z" fill="#303C42"/>
<path d="M29 2.41663C42.7645 2.41663 54.1161 12.9333 55.4492 26.3528C53.4824 26.7884 48.4863 27.6984 40.9601 27.7811C40.3389 21.6974 35.2448 16.9165 29 16.9165C22.7551 16.9165 17.6611 21.6973 17.0398 27.7811C9.51367 27.6984 4.51751 26.7884 2.55072 26.3528C3.88381 12.9334 15.2354 2.41663 29 2.41663Z" fill="#E53935"/>
<path d="M29 38.6666C34.3387 38.6666 38.6666 34.3387 38.6666 29C38.6666 23.6613 34.3387 19.3334 29 19.3334C23.6613 19.3334 19.3334 23.6613 19.3334 29C19.3334 34.3387 23.6613 38.6666 29 38.6666Z" fill="#455A64"/>
<path d="M29 55.5834C14.3419 55.5834 2.41663 43.6581 2.41663 29C2.41663 28.9325 2.42637 28.8673 2.42682 28.7999C4.72756 29.2898 9.7022 30.108 17.0367 30.1877C17.6436 36.2865 22.7444 41.0832 29 41.0832C35.2556 41.0832 40.3564 36.2865 40.9633 30.1877C48.2978 30.108 53.2724 29.2898 55.5732 28.7999C55.5736 28.8673 55.5834 28.9324 55.5834 29C55.5834 43.6581 43.6581 55.5834 29 55.5834Z" fill="white"/>
<path d="M29 36.25C33.0041 36.25 36.25 33.0041 36.25 29C36.25 24.9959 33.0041 21.75 29 21.75C24.9959 21.75 21.75 24.9959 21.75 29C21.75 33.0041 24.9959 36.25 29 36.25Z" fill="#303C42"/>
<path d="M29 33.8334C31.6694 33.8334 33.8334 31.6694 33.8334 29C33.8334 26.3306 31.6694 24.1666 29 24.1666C26.3306 24.1666 24.1666 26.3306 24.1666 29C24.1666 31.6694 26.3306 33.8334 29 33.8334Z" fill="#F2F2F2"/>
<path opacity="0.2" d="M25.1232 30.4599C25.1232 27.7943 27.2908 25.6266 29.9566 25.6266C31.3403 25.6266 32.5812 26.2183 33.4631 27.153C32.736 25.4022 31.0113 24.1666 29 24.1666C26.3344 24.1666 24.1666 26.3342 24.1666 29C24.1666 30.2818 24.6765 31.4409 25.4934 32.3067C25.2568 31.7372 25.1232 31.1142 25.1232 30.4599Z" fill="white"/>
<path d="M29 0C13.0097 0 0 13.0097 0 29C0 44.9903 13.0097 58 29 58C44.9903 58 58 44.9903 58 29C58 13.0097 44.9903 0 29 0Z" fill="url(#paint0_linear)"/>
<path opacity="0.1" d="M50.3807 27.1872C52.7652 26.8976 54.4792 26.5679 55.4493 26.3529C54.7921 19.7378 51.6931 13.8357 47.0781 9.5434C49.3964 13.4872 50.75 18.0626 50.75 22.9584C50.75 24.4008 50.603 25.8065 50.3807 27.1872Z" fill="black"/>
<path opacity="0.1" d="M55.5732 28.7999C54.3788 29.0542 52.4482 29.3954 49.8562 29.6775C46.8679 41.0869 36.4997 49.5416 24.1666 49.5416C17.1671 49.5416 10.8099 46.8018 6.05762 42.364C10.673 50.2557 19.2165 55.5834 29 55.5834C43.6582 55.5834 55.5834 43.6581 55.5834 29C55.5834 28.9325 55.5736 28.8673 55.5732 28.7999Z" fill="black"/>
<path d="M73.68 24V7.2H81C82.936 7.2 84.496 7.744 85.68 8.832C86.88 9.904 87.48 11.24 87.48 12.84C87.48 14.44 86.88 15.784 85.68 16.872C84.496 17.944 82.936 18.48 81 18.48H76.44V24H73.68ZM76.44 15.84H81C82.168 15.84 83.056 15.576 83.664 15.048C84.288 14.504 84.6 13.768 84.6 12.84C84.6 11.912 84.288 11.184 83.664 10.656C83.056 10.112 82.168 9.84 81 9.84H76.44V15.84ZM90.3878 22.416C89.1718 21.184 88.5638 19.672 88.5638 17.88C88.5638 16.088 89.1718 14.584 90.3878 13.368C91.6198 12.136 93.1318 11.52 94.9238 11.52C96.7158 11.52 98.2198 12.136 99.4358 13.368C100.668 14.584 101.284 16.088 101.284 17.88C101.284 19.672 100.668 21.184 99.4358 22.416C98.2198 23.632 96.7158 24.24 94.9238 24.24C93.1318 24.24 91.6198 23.632 90.3878 22.416ZM92.2358 14.928C91.5478 15.664 91.2038 16.648 91.2038 17.88C91.2038 19.112 91.5478 20.104 92.2358 20.856C92.9238 21.592 93.8198 21.96 94.9238 21.96C96.0278 21.96 96.9238 21.592 97.6118 20.856C98.2998 20.104 98.6438 19.112 98.6438 17.88C98.6438 16.648 98.2998 15.664 97.6118 14.928C96.9238 14.176 96.0278 13.8 94.9238 13.8C93.8198 13.8 92.9238 14.176 92.2358 14.928ZM103.44 24V7.2H105.96V16.56H107.76L111.48 11.76H114.36L109.92 17.4L114.72 24H111.6L107.88 18.84H105.96V24H103.44ZM116.52 22.416C115.32 21.184 114.72 19.672 114.72 17.88C114.72 16.088 115.32 14.584 116.52 13.368C117.736 12.136 119.216 11.52 120.96 11.52C122.704 11.52 124.176 12.136 125.376 13.368C126.592 14.584 127.2 16.088 127.2 17.88V18.72H117.24C117.432 19.728 117.872 20.52 118.56 21.096C119.248 21.672 120.048 21.96 120.96 21.96C122.08 21.96 122.976 21.68 123.648 21.12C123.952 20.896 124.216 20.616 124.44 20.28H127.08C126.744 21.064 126.32 21.728 125.808 22.272C124.496 23.584 122.88 24.24 120.96 24.24C119.216 24.24 117.736 23.632 116.52 22.416ZM117.36 16.68H124.56C124.416 15.88 124.032 15.2 123.408 14.64C122.8 14.08 121.984 13.8 120.96 13.8C120.096 13.8 119.328 14.064 118.656 14.592C117.984 15.104 117.552 15.8 117.36 16.68ZM129.362 24V11.76H131.882V13.44H132.002C132.21 13.088 132.482 12.768 132.818 12.48C133.586 11.84 134.514 11.52 135.602 11.52C136.898 11.52 137.946 11.904 138.746 12.672C139.082 12.992 139.354 13.368 139.562 13.8H139.682C139.906 13.384 140.218 13.008 140.618 12.672C141.482 11.904 142.57 11.52 143.882 11.52C145.306 11.52 146.418 11.968 147.218 12.864C148.034 13.744 148.442 15.016 148.442 16.68V24H145.922V16.8C145.922 14.8 145.042 13.8 143.282 13.8C142.434 13.8 141.698 14.136 141.074 14.808C140.466 15.464 140.162 16.288 140.162 17.28V24H137.642V16.8C137.642 14.8 136.762 13.8 135.002 13.8C134.154 13.8 133.418 14.136 132.794 14.808C132.186 15.464 131.882 16.288 131.882 17.28V24H129.362ZM152.31 22.416C151.094 21.184 150.486 19.672 150.486 17.88C150.486 16.088 151.094 14.584 152.31 13.368C153.542 12.136 155.054 11.52 156.846 11.52C158.638 11.52 160.142 12.136 161.358 13.368C162.59 14.584 163.206 16.088 163.206 17.88C163.206 19.672 162.59 21.184 161.358 22.416C160.142 23.632 158.638 24.24 156.846 24.24C155.054 24.24 153.542 23.632 152.31 22.416ZM154.158 14.928C153.47 15.664 153.126 16.648 153.126 17.88C153.126 19.112 153.47 20.104 154.158 20.856C154.846 21.592 155.742 21.96 156.846 21.96C157.95 21.96 158.846 21.592 159.534 20.856C160.222 20.104 160.566 19.112 160.566 17.88C160.566 16.648 160.222 15.664 159.534 14.928C158.846 14.176 157.95 13.8 156.846 13.8C155.742 13.8 154.846 14.176 154.158 14.928ZM165.362 24V11.76H167.882V13.44H168.002C168.194 13.12 168.49 12.8 168.89 12.48C169.754 11.84 170.738 11.52 171.842 11.52C173.362 11.52 174.538 11.96 175.37 12.84C176.218 13.72 176.642 15 176.642 16.68V24H174.122V16.92C174.122 15.848 173.882 15.064 173.402 14.568C172.938 14.056 172.218 13.8 171.242 13.8C170.266 13.8 169.458 14.136 168.818 14.808C168.194 15.464 167.882 16.328 167.882 17.4V24H165.362ZM74.472 46.44C73.304 45.24 72.72 43.72 72.72 41.88C72.72 40.04 73.304 38.52 74.472 37.32C75.64 36.12 77.096 35.52 78.84 35.52C80.792 35.52 82.384 36.264 83.616 37.752C84.144 38.44 84.512 39.176 84.72 39.96H82.08C81.968 39.56 81.76 39.2 81.456 38.88C80.832 38.16 79.96 37.8 78.84 37.8C77.848 37.8 77.016 38.176 76.344 38.928C75.688 39.68 75.36 40.664 75.36 41.88C75.36 43.096 75.688 44.08 76.344 44.832C77.016 45.584 77.848 45.96 78.84 45.96C79.992 45.96 80.896 45.6 81.552 44.88C81.84 44.56 82.056 44.2 82.2 43.8H84.72C84.512 44.616 84.144 45.36 83.616 46.032C82.4 47.504 80.808 48.24 78.84 48.24C77.096 48.24 75.64 47.64 74.472 46.44ZM87.8565 46.416C86.6405 45.184 86.0325 43.672 86.0325 41.88C86.0325 40.088 86.6405 38.584 87.8565 37.368C89.0885 36.136 90.6005 35.52 92.3925 35.52C94.1845 35.52 95.6885 36.136 96.9045 37.368C98.1365 38.584 98.7525 40.088 98.7525 41.88C98.7525 43.672 98.1365 45.184 96.9045 46.416C95.6885 47.632 94.1845 48.24 92.3925 48.24C90.6005 48.24 89.0885 47.632 87.8565 46.416ZM89.7045 38.928C89.0165 39.664 88.6725 40.648 88.6725 41.88C88.6725 43.112 89.0165 44.104 89.7045 44.856C90.3925 45.592 91.2885 45.96 92.3925 45.96C93.4965 45.96 94.3925 45.592 95.0805 44.856C95.7685 44.104 96.1125 43.112 96.1125 41.88C96.1125 40.648 95.7685 39.664 95.0805 38.928C94.3925 38.176 93.4965 37.8 92.3925 37.8C91.2885 37.8 90.3925 38.176 89.7045 38.928ZM100.909 48V31.2H103.429V45.72H106.189V48H100.909ZM107.87 48V31.2H110.39V45.72H113.15V48H107.87ZM115.911 46.416C114.711 45.184 114.111 43.672 114.111 41.88C114.111 40.088 114.711 38.584 115.911 37.368C117.127 36.136 118.607 35.52 120.351 35.52C122.095 35.52 123.567 36.136 124.767 37.368C125.983 38.584 126.591 40.088 126.591 41.88V42.72H116.631C116.823 43.728 117.263 44.52 117.951 45.096C118.639 45.672 119.439 45.96 120.351 45.96C121.471 45.96 122.367 45.68 123.039 45.12C123.343 44.896 123.607 44.616 123.831 44.28H126.471C126.135 45.064 125.711 45.728 125.199 46.272C123.887 47.584 122.271 48.24 120.351 48.24C118.607 48.24 117.127 47.632 115.911 46.416ZM116.751 40.68H123.951C123.807 39.88 123.423 39.2 122.799 38.64C122.191 38.08 121.375 37.8 120.351 37.8C119.487 37.8 118.719 38.064 118.047 38.592C117.375 39.104 116.943 39.8 116.751 40.68ZM129.785 46.44C128.617 45.24 128.033 43.72 128.033 41.88C128.033 40.04 128.617 38.52 129.785 37.32C130.953 36.12 132.409 35.52 134.153 35.52C136.105 35.52 137.697 36.264 138.929 37.752C139.457 38.44 139.825 39.176 140.033 39.96H137.393C137.281 39.56 137.073 39.2 136.769 38.88C136.145 38.16 135.273 37.8 134.153 37.8C133.161 37.8 132.329 38.176 131.657 38.928C131.001 39.68 130.673 40.664 130.673 41.88C130.673 43.096 131.001 44.08 131.657 44.832C132.329 45.584 133.161 45.96 134.153 45.96C135.305 45.96 136.209 45.6 136.865 44.88C137.153 44.56 137.369 44.2 137.513 43.8H140.033C139.825 44.616 139.457 45.36 138.929 46.032C137.713 47.504 136.121 48.24 134.153 48.24C132.409 48.24 130.953 47.64 129.785 46.44ZM141.105 38.04V35.76H142.545V33.12H145.065V35.76H148.785V38.04H145.065V45.72H148.905V48H142.545V38.04H141.105ZM151.257 33.528C150.969 33.24 150.825 32.888 150.825 32.472C150.825 32.056 150.969 31.704 151.257 31.416C151.545 31.112 151.897 30.96 152.313 30.96C152.729 30.96 153.081 31.112 153.369 31.416C153.673 31.704 153.825 32.056 153.825 32.472C153.825 32.888 153.673 33.24 153.369 33.528C153.081 33.816 152.729 33.96 152.313 33.96C151.897 33.96 151.545 33.816 151.257 33.528ZM151.065 48V35.76H153.585V48H151.065ZM157.56 46.416C156.344 45.184 155.736 43.672 155.736 41.88C155.736 40.088 156.344 38.584 157.56 37.368C158.792 36.136 160.304 35.52 162.096 35.52C163.888 35.52 165.392 36.136 166.608 37.368C167.84 38.584 168.456 40.088 168.456 41.88C168.456 43.672 167.84 45.184 166.608 46.416C165.392 47.632 163.888 48.24 162.096 48.24C160.304 48.24 158.792 47.632 157.56 46.416ZM159.408 38.928C158.72 39.664 158.376 40.648 158.376 41.88C158.376 43.112 158.72 44.104 159.408 44.856C160.096 45.592 160.992 45.96 162.096 45.96C163.2 45.96 164.096 45.592 164.784 44.856C165.472 44.104 165.816 43.112 165.816 41.88C165.816 40.648 165.472 39.664 164.784 38.928C164.096 38.176 163.2 37.8 162.096 37.8C160.992 37.8 160.096 38.176 159.408 38.928ZM170.612 48V35.76H173.132V37.44H173.252C173.444 37.12 173.74 36.8 174.14 36.48C175.004 35.84 175.988 35.52 177.092 35.52C178.612 35.52 179.788 35.96 180.62 36.84C181.468 37.72 181.892 39 181.892 40.68V48H179.372V40.92C179.372 39.848 179.132 39.064 178.652 38.568C178.188 38.056 177.468 37.8 176.492 37.8C175.516 37.8 174.708 38.136 174.068 38.808C173.444 39.464 173.132 40.328 173.132 41.4V48H170.612Z" fill="#202020"/>
<defs>
<linearGradient id="paint0_linear" x1="2.71827" y1="16.7484" x2="55.2821" y2="41.2563" gradientUnits="userSpaceOnUse">
<stop stop-color="white" stop-opacity="0.2"/>
<stop offset="1" stop-color="white" stop-opacity="0"/>
</linearGradient>
</defs>
</svg>
